<?xml version="1.0" encoding="UTF-8" standalone="no"?>
<svg
   xmlns:dc="http://purl.org/dc/elements/1.1/"
   xmlns:cc="http://creativecommons.org/ns#"
   xmlns:rdf="http://www.w3.org/1999/02/22-rdf-syntax-ns#"
   xmlns:svg="http://www.w3.org/2000/svg"
   xmlns="http://www.w3.org/2000/svg"
   id="svg97"
   version="1.2"
   viewBox="0 0 627.278 159.492"
   height="159.492pt"
   width="627.278pt">
  <metadata
     id="metadata101">
    <rdf:RDF>
      <cc:Work
         rdf:about="">
        <dc:format>image/svg+xml</dc:format>
        <dc:type
           rdf:resource="http://purl.org/dc/dcmitype/StillImage" />
        <dc:title></dc:title>
      </cc:Work>
    </rdf:RDF>
  </metadata>
  <defs
     id="defs14">
    <clipPath
       id="clip1">
      <path
         id="path2"
         d="M 622 115 L 627.277344 115 L 627.277344 144 L 622 144 Z M 622 115 " />
    </clipPath>
    <clipPath
       id="clip2">
      <path
         id="path5"
         d="M 0 17 L 142 17 L 142 159.492188 L 0 159.492188 Z M 0 17 " />
    </clipPath>
    <clipPath
       id="clip3">
      <path
         id="path8"
         d="M 141 0 L 261 0 L 261 159.492188 L 141 159.492188 Z M 141 0 " />
    </clipPath>
    <clipPath
       id="clip4">
      <path
         id="path11"
         d="M 174 17 L 284 17 L 284 159.492188 L 174 159.492188 Z M 174 17 " />
    </clipPath>
  </defs>
  <g
     id="surface764">
    <path
       id="path16"
       d="M 333.648438 56.480469 L 333.648438 61.507812 L 314.710938 61.507812 L 314.710938 33.363281 L 333.246094 33.363281 L 333.246094 38.386719 L 319.980469 38.386719 L 319.980469 44.742188 L 332.042969 44.742188 L 332.042969 49.765625 L 319.980469 49.765625 L 319.980469 56.480469 Z M 333.648438 56.480469 "
       style=" stroke:none;fill-rule:nonzero;fill:rgb(18.03894%,17.64679%,38.430786%);fill-opacity:1;" />
    <path
       id="path18"
       d="M 346.074219 61.707031 C 340.488281 61.707031 335.902344 57.40625 335.902344 51.496094 C 335.902344 45.503906 340.648438 41.203125 346.277344 41.203125 C 350.859375 41.203125 354.761719 44.058594 355.886719 48.761719 L 350.417969 48.761719 C 349.574219 47.113281 348.085938 46.066406 346.15625 46.066406 C 343.339844 46.066406 341.089844 48.320312 341.089844 51.453125 C 341.089844 54.589844 343.339844 56.84375 346.15625 56.84375 C 347.964844 56.84375 349.371094 55.917969 350.257812 54.429688 L 355.765625 54.429688 C 354.480469 59.214844 350.335938 61.707031 346.074219 61.707031 "
       style=" stroke:none;fill-rule:nonzero;fill:rgb(18.03894%,17.64679%,38.430786%);fill-opacity:1;" />
    <path
       id="path20"
       d="M 373.820312 51.453125 C 373.820312 48.320312 371.972656 45.867188 368.917969 45.867188 C 365.859375 45.867188 363.808594 48.320312 363.808594 51.453125 C 363.808594 54.589844 365.859375 57.042969 368.917969 57.042969 C 371.972656 57.042969 373.820312 54.589844 373.820312 51.453125 M 358.542969 51.496094 C 358.542969 45.0625 363.527344 41.203125 368.917969 41.203125 C 374.34375 41.203125 379.089844 45.101562 379.089844 51.414062 C 379.089844 57.808594 374.183594 61.707031 368.753906 61.707031 C 363.289062 61.707031 358.542969 57.808594 358.542969 51.496094 "
       style=" stroke:none;fill-rule:nonzero;fill:rgb(18.03894%,17.64679%,38.430786%);fill-opacity:1;" />
    <path
       id="path22"
       d="M 401.808594 50.609375 L 401.808594 61.507812 L 396.460938 61.507812 L 396.460938 51.816406 C 396.460938 51.132812 396.945312 46.066406 393.085938 45.867188 C 391.195312 45.746094 387.816406 46.789062 387.816406 52.058594 L 387.816406 61.507812 L 382.511719 61.507812 L 382.511719 41.402344 L 386.613281 41.402344 L 387.292969 43.855469 L 387.976562 43.855469 C 388.824219 42.851562 390.710938 41.203125 394.089844 41.203125 C 399.277344 41.203125 401.808594 45.0625 401.808594 50.609375 "
       style=" stroke:none;fill-rule:nonzero;fill:rgb(18.03894%,17.64679%,38.430786%);fill-opacity:1;" />
    <path
       id="path24"
       d="M 420.546875 51.453125 C 420.546875 48.320312 418.699219 45.867188 415.644531 45.867188 C 412.585938 45.867188 410.535156 48.320312 410.535156 51.453125 C 410.535156 54.589844 412.585938 57.042969 415.644531 57.042969 C 418.699219 57.042969 420.546875 54.589844 420.546875 51.453125 M 405.269531 51.496094 C 405.269531 45.0625 410.253906 41.203125 415.644531 41.203125 C 421.070312 41.203125 425.816406 45.101562 425.816406 51.414062 C 425.816406 57.808594 420.910156 61.707031 415.480469 61.707031 C 410.015625 61.707031 405.269531 57.808594 405.269531 51.496094 "
       style=" stroke:none;fill-rule:nonzero;fill:rgb(18.03894%,17.64679%,38.430786%);fill-opacity:1;" />
    <path
       id="path26"
       d="M 459.269531 50.609375 L 459.269531 61.507812 L 453.921875 61.507812 L 453.921875 51.816406 C 453.921875 49.042969 454.203125 45.542969 450.503906 45.867188 C 449.539062 45.945312 446.886719 46.386719 446.886719 52.058594 L 446.886719 61.507812 L 441.578125 61.507812 L 441.578125 51.816406 C 441.578125 49.042969 441.859375 45.542969 438.160156 45.867188 C 437.195312 45.945312 434.542969 46.386719 434.542969 52.058594 L 434.542969 61.507812 L 429.234375 61.507812 L 429.234375 41.402344 L 433.335938 41.402344 L 433.9375 43.574219 L 434.582031 43.574219 C 435.347656 42.570312 436.957031 41.242188 439.449219 41.203125 C 441.699219 41.160156 443.628906 42.207031 444.957031 43.976562 L 445.558594 43.976562 C 446.5625 42.730469 448.414062 41.203125 451.671875 41.160156 C 456.898438 41.121094 459.269531 45.023438 459.269531 50.609375 "
       style=" stroke:none;fill-rule:nonzero;fill:rgb(18.03894%,17.64679%,38.430786%);fill-opacity:1;" />
    <path
       id="path28"
       d="M 468.640625 61.507812 L 463.496094 61.507812 L 463.496094 41.402344 L 468.640625 41.402344 Z M 462.609375 35.773438 C 462.609375 33.84375 464.179688 32.355469 466.070312 32.355469 C 467.917969 32.355469 469.445312 33.84375 469.445312 35.773438 C 469.445312 37.582031 467.917969 39.152344 466.070312 39.152344 C 464.179688 39.152344 462.609375 37.582031 462.609375 35.773438 "
       style=" stroke:none;fill-rule:nonzero;fill:rgb(18.03894%,17.64679%,38.430786%);fill-opacity:1;" />
    <path
       id="path30"
       d="M 482.554688 61.707031 C 476.964844 61.707031 472.382812 57.40625 472.382812 51.496094 C 472.382812 45.503906 477.128906 41.203125 482.757812 41.203125 C 487.339844 41.203125 491.238281 44.058594 492.367188 48.761719 L 486.898438 48.761719 C 486.054688 47.113281 484.566406 46.066406 482.636719 46.066406 C 479.820312 46.066406 477.570312 48.320312 477.570312 51.453125 C 477.570312 54.589844 479.820312 56.84375 482.636719 56.84375 C 484.445312 56.84375 485.851562 55.917969 486.738281 54.429688 L 492.246094 54.429688 C 490.957031 59.214844 486.816406 61.707031 482.554688 61.707031 "
       style=" stroke:none;fill-rule:nonzero;fill:rgb(18.03894%,17.64679%,38.430786%);fill-opacity:1;" />
    <path
       id="path32"
       d="M 326.25 94.257812 L 326.25 93.855469 C 322.59375 94.257812 318.972656 94.699219 318.972656 96.789062 C 318.972656 99.84375 325.929688 99.605469 326.25 94.257812 M 333.570312 98.839844 L 333.570312 102.699219 L 332.363281 102.699219 C 330.03125 102.699219 328.382812 101.855469 327.699219 100.125 C 326.492188 101.773438 324.484375 102.902344 321.347656 102.902344 C 316.800781 102.902344 313.90625 100.566406 313.90625 96.949219 C 313.90625 90.679688 322.472656 90.113281 326.332031 89.914062 C 326.25 87.582031 324.964844 86.738281 322.914062 86.738281 C 320.058594 86.738281 319.859375 88.464844 319.859375 88.464844 L 314.832031 88.464844 C 315.195312 84.886719 318.128906 82.394531 323.035156 82.394531 C 327.820312 82.394531 331.195312 84.765625 331.195312 90.597656 L 331.195312 95.945312 C 331.195312 98.277344 332.042969 98.839844 333.570312 98.839844 "
       style=" stroke:none;fill-rule:nonzero;fill:rgb(18.03894%,17.64679%,38.430786%);fill-opacity:1;" />
    <path
       id="path34"
       d="M 355.847656 91.804688 L 355.847656 102.699219 L 350.5 102.699219 L 350.5 93.011719 C 350.5 92.324219 350.980469 87.261719 347.121094 87.058594 C 345.230469 86.9375 341.855469 87.984375 341.855469 93.25 L 341.855469 102.699219 L 336.546875 102.699219 L 336.546875 82.597656 L 340.648438 82.597656 L 341.332031 85.050781 L 342.015625 85.050781 C 342.859375 84.042969 344.75 82.394531 348.128906 82.394531 C 353.3125 82.394531 355.847656 86.253906 355.847656 91.804688 "
       style=" stroke:none;fill-rule:nonzero;fill:rgb(18.03894%,17.64679%,38.430786%);fill-opacity:1;" />
    <path
       id="path36"
       d="M 373.859375 92.648438 C 373.859375 89.3125 372.050781 87.339844 369.4375 87.339844 C 366.984375 87.339844 364.53125 89.109375 364.53125 92.648438 C 364.53125 96.1875 366.984375 97.957031 369.4375 97.957031 C 372.050781 97.957031 373.859375 95.984375 373.859375 92.648438 M 378.886719 74.152344 L 378.886719 102.699219 L 374.945312 102.699219 L 374.382812 100.769531 L 373.78125 100.769531 C 372.535156 102.136719 370.84375 102.902344 368.675781 102.902344 C 363.566406 102.902344 359.304688 98.71875 359.304688 92.648438 C 359.304688 86.578125 363.566406 82.394531 368.675781 82.394531 C 370.765625 82.394531 372.574219 83.117188 373.859375 84.566406 L 373.859375 74.152344 Z M 378.886719 74.152344 "
       style=" stroke:none;fill-rule:nonzero;fill:rgb(18.03894%,17.64679%,38.430786%);fill-opacity:1;" />
    <path
       id="path38"
       d="M 403.417969 102.902344 C 397.265625 102.902344 393.003906 98.878906 393.003906 93.613281 L 398.230469 93.613281 C 398.710938 97.109375 401.605469 97.914062 403.375 97.914062 C 404.742188 97.914062 407.476562 97.429688 407.476562 94.820312 C 407.476562 92.445312 405.1875 91.480469 402.894531 90.597656 C 399.113281 89.109375 393.769531 87.300781 393.769531 81.953125 C 393.769531 77.207031 397.910156 74.3125 402.933594 74.3125 C 408.765625 74.3125 412.019531 78.214844 412.019531 81.792969 L 406.875 81.792969 C 406.59375 80.222656 404.863281 79.21875 402.855469 79.21875 C 400.921875 79.21875 399.316406 80.183594 399.316406 81.953125 C 399.316406 83.679688 400.882812 84.363281 403.617188 85.613281 C 406.554688 86.9375 412.824219 88.507812 412.824219 94.859375 C 412.824219 100.125 408.523438 102.902344 403.417969 102.902344 "
       style=" stroke:none;fill-rule:nonzero;fill:rgb(18.03894%,17.64679%,38.430786%);fill-opacity:1;" />
    <path
       id="path40"
       d="M 430.640625 92.648438 C 430.640625 89.511719 428.789062 87.058594 425.734375 87.058594 C 422.679688 87.058594 420.628906 89.511719 420.628906 92.648438 C 420.628906 95.785156 422.679688 98.238281 425.734375 98.238281 C 428.789062 98.238281 430.640625 95.785156 430.640625 92.648438 M 415.359375 92.6875 C 415.359375 86.253906 420.347656 82.394531 425.734375 82.394531 C 431.160156 82.394531 435.90625 86.292969 435.90625 92.609375 C 435.90625 99 431 102.902344 425.574219 102.902344 C 420.105469 102.902344 415.359375 99 415.359375 92.6875 "
       style=" stroke:none;fill-rule:nonzero;fill:rgb(18.03894%,17.64679%,38.430786%);fill-opacity:1;" />
    <path
       id="path42"
       d="M 448.855469 102.902344 C 443.265625 102.902344 438.683594 98.597656 438.683594 92.6875 C 438.683594 86.695312 443.425781 82.394531 449.054688 82.394531 C 453.640625 82.394531 457.539062 85.25 458.664062 89.953125 L 453.199219 89.953125 C 452.351562 88.304688 450.867188 87.257812 448.933594 87.257812 C 446.121094 87.257812 443.871094 89.511719 443.871094 92.648438 C 443.871094 95.785156 446.121094 98.035156 448.933594 98.035156 C 450.746094 98.035156 452.152344 97.109375 453.035156 95.625 L 458.542969 95.625 C 457.257812 100.40625 453.117188 102.902344 448.855469 102.902344 "
       style=" stroke:none;fill-rule:nonzero;fill:rgb(18.03894%,17.64679%,38.430786%);fill-opacity:1;" />
    <path
       id="path44"
       d="M 467.796875 102.699219 L 462.648438 102.699219 L 462.648438 82.59375 L 467.796875 82.59375 Z M 461.765625 76.96875 C 461.765625 75.035156 463.335938 73.550781 465.222656 73.550781 C 467.074219 73.550781 468.601562 75.035156 468.601562 76.96875 C 468.601562 78.777344 467.074219 80.34375 465.222656 80.34375 C 463.335938 80.34375 461.765625 78.777344 461.765625 76.96875 "
       style=" stroke:none;fill-rule:nonzero;fill:rgb(18.03894%,17.64679%,38.430786%);fill-opacity:1;" />
    <path
       id="path46"
       d="M 483.960938 94.257812 L 483.960938 93.855469 C 480.300781 94.257812 476.683594 94.699219 476.683594 96.789062 C 476.683594 99.84375 483.640625 99.605469 483.960938 94.257812 M 491.277344 98.839844 L 491.277344 102.699219 L 490.070312 102.699219 C 487.742188 102.699219 486.089844 101.855469 485.410156 100.125 C 484.203125 101.773438 482.191406 102.902344 479.054688 102.902344 C 474.511719 102.902344 471.617188 100.566406 471.617188 96.949219 C 471.617188 90.679688 480.179688 90.113281 484.042969 89.914062 C 483.960938 87.582031 482.675781 86.738281 480.625 86.738281 C 477.769531 86.738281 477.566406 88.464844 477.566406 88.464844 L 472.542969 88.464844 C 472.902344 84.886719 475.839844 82.394531 480.746094 82.394531 C 485.527344 82.394531 488.90625 84.765625 488.90625 90.597656 L 488.90625 95.945312 C 488.90625 98.277344 489.75 98.839844 491.277344 98.839844 "
       style=" stroke:none;fill-rule:nonzero;fill:rgb(18.03894%,17.64679%,38.430786%);fill-opacity:1;" />
    <path
       id="path48"
       d="M 499.121094 102.699219 L 493.894531 102.699219 L 493.894531 74.152344 L 499.121094 74.152344 Z M 499.121094 102.699219 "
       style=" stroke:none;fill-rule:nonzero;fill:rgb(18.03894%,17.64679%,38.430786%);fill-opacity:1;" />
    <path
       id="path50"
       d="M 319.820312 128.574219 L 324.242188 128.574219 C 326.53125 128.574219 328.058594 126.804688 328.058594 124.472656 C 328.058594 122.140625 326.492188 120.773438 324.242188 120.773438 L 319.820312 120.773438 Z M 329.144531 143.890625 L 323.15625 133.558594 L 319.820312 133.558594 L 319.820312 143.890625 L 314.710938 143.890625 L 314.710938 115.746094 L 324.644531 115.746094 C 329.265625 115.746094 333.367188 118.84375 333.367188 124.390625 C 333.367188 128.25 331.195312 131.1875 328.300781 132.59375 L 335.097656 143.890625 Z M 329.144531 143.890625 "
       style=" stroke:none;fill-rule:nonzero;fill:rgb(18.03894%,17.64679%,38.430786%);fill-opacity:1;" />
    <path
       id="path52"
       d="M 341.292969 131.308594 L 350.335938 131.308594 C 349.734375 128.933594 348.085938 127.96875 346.074219 127.96875 C 343.863281 127.96875 342.09375 129.214844 341.292969 131.308594 M 355.644531 135.367188 L 340.96875 135.367188 C 341.574219 138.421875 344.066406 139.546875 346.238281 139.546875 C 348.96875 139.546875 350.136719 137.859375 350.136719 137.859375 L 355.203125 137.859375 C 353.675781 141.878906 350.015625 144.09375 346.074219 144.09375 C 340.648438 144.09375 335.902344 139.953125 335.902344 133.679688 C 335.902344 127.449219 340.609375 123.585938 345.914062 123.585938 C 351.0625 123.585938 356.289062 127.164062 355.644531 135.367188 "
       style=" stroke:none;fill-rule:nonzero;fill:rgb(18.03894%,17.64679%,38.430786%);fill-opacity:1;" />
    <path
       id="path54"
       d="M 366.625 127.847656 C 364.9375 127.847656 364.210938 128.695312 364.210938 129.539062 C 364.210938 130.90625 366.019531 131.308594 367.226562 131.546875 C 370.804688 132.3125 374.425781 133.398438 374.425781 137.660156 C 374.425781 141.800781 371.007812 144.09375 366.863281 144.09375 C 362.242188 144.09375 358.664062 141.277344 358.421875 137.015625 L 363.367188 137.015625 C 363.488281 138.222656 364.292969 139.789062 366.746094 139.789062 C 368.796875 139.789062 369.277344 138.703125 369.277344 137.859375 C 369.277344 136.371094 367.871094 135.929688 366.503906 135.609375 C 364.132812 135.085938 359.023438 134.121094 359.023438 129.539062 C 359.023438 125.597656 362.804688 123.585938 366.703125 123.585938 C 371.207031 123.585938 374.183594 126.320312 374.425781 129.699219 L 369.480469 129.699219 C 369.316406 129.015625 368.675781 127.847656 366.625 127.847656 "
       style=" stroke:none;fill-rule:nonzero;fill:rgb(18.03894%,17.64679%,38.430786%);fill-opacity:1;" />
    <path
       id="path56"
       d="M 382.308594 131.308594 L 391.355469 131.308594 C 390.75 128.933594 389.101562 127.96875 387.09375 127.96875 C 384.882812 127.96875 383.113281 129.214844 382.308594 131.308594 M 396.664062 135.367188 L 381.984375 135.367188 C 382.589844 138.421875 385.082031 139.546875 387.253906 139.546875 C 389.988281 139.546875 391.152344 137.859375 391.152344 137.859375 L 396.21875 137.859375 C 394.691406 141.878906 391.03125 144.09375 387.09375 144.09375 C 381.664062 144.09375 376.921875 139.953125 376.921875 133.679688 C 376.921875 127.449219 381.625 123.585938 386.929688 123.585938 C 392.078125 123.585938 397.304688 127.164062 396.664062 135.367188 "
       style=" stroke:none;fill-rule:nonzero;fill:rgb(18.03894%,17.64679%,38.430786%);fill-opacity:1;" />
    <path
       id="path58"
       d="M 411.660156 135.449219 L 411.660156 135.046875 C 408.003906 135.449219 404.382812 135.890625 404.382812 137.980469 C 404.382812 141.039062 411.339844 140.796875 411.660156 135.449219 M 418.980469 140.03125 L 418.980469 143.890625 L 417.773438 143.890625 C 415.441406 143.890625 413.792969 143.046875 413.109375 141.320312 C 411.902344 142.96875 409.894531 144.09375 406.757812 144.09375 C 402.214844 144.09375 399.320312 141.761719 399.320312 138.140625 C 399.320312 131.871094 407.882812 131.304688 411.742188 131.105469 C 411.660156 128.773438 410.375 127.929688 408.324219 127.929688 C 405.46875 127.929688 405.269531 129.660156 405.269531 129.660156 L 400.242188 129.660156 C 400.605469 126.082031 403.539062 123.585938 408.445312 123.585938 C 413.230469 123.585938 416.605469 125.960938 416.605469 131.789062 L 416.605469 137.136719 C 416.605469 139.46875 417.453125 140.03125 418.980469 140.03125 "
       style=" stroke:none;fill-rule:nonzero;fill:rgb(18.03894%,17.64679%,38.430786%);fill-opacity:1;" />
    <path
       id="path60"
       d="M 434.824219 123.585938 L 434.824219 128.734375 C 434.421875 128.652344 433.738281 128.574219 433.054688 128.574219 C 430.238281 128.574219 427.304688 130.019531 427.304688 133.71875 L 427.304688 143.890625 L 421.957031 143.890625 L 421.957031 123.789062 L 426.058594 123.789062 L 426.78125 126 L 427.425781 126 C 428.308594 125.113281 430.28125 123.585938 433.578125 123.585938 Z M 434.824219 123.585938 "
       style=" stroke:none;fill-rule:nonzero;fill:rgb(18.03894%,17.64679%,38.430786%);fill-opacity:1;" />
    <path
       id="path62"
       d="M 446.203125 144.09375 C 440.613281 144.09375 436.03125 139.789062 436.03125 133.878906 C 436.03125 127.890625 440.777344 123.585938 446.40625 123.585938 C 450.988281 123.585938 454.890625 126.441406 456.015625 131.148438 L 450.546875 131.148438 C 449.703125 129.496094 448.214844 128.453125 446.285156 128.453125 C 443.46875 128.453125 441.21875 130.703125 441.21875 133.839844 C 441.21875 136.976562 443.46875 139.226562 446.285156 139.226562 C 448.09375 139.226562 449.5 138.304688 450.386719 136.816406 L 455.894531 136.816406 C 454.605469 141.601562 450.464844 144.09375 446.203125 144.09375 "
       style=" stroke:none;fill-rule:nonzero;fill:rgb(18.03894%,17.64679%,38.430786%);fill-opacity:1;" />
    <path
       id="path64"
       d="M 478.492188 132.996094 L 478.492188 143.890625 L 473.105469 143.890625 L 473.105469 134.203125 C 473.105469 132.230469 473.429688 128.25 469.808594 128.25 C 468.039062 128.25 464.621094 129.175781 464.621094 134.441406 L 464.621094 143.890625 L 459.234375 143.890625 L 459.234375 115.34375 L 464.339844 115.34375 L 464.339844 125.878906 L 465.023438 125.878906 C 465.988281 124.875 467.839844 123.585938 470.816406 123.585938 C 476 123.585938 478.492188 127.449219 478.492188 132.996094 "
       style=" stroke:none;fill-rule:nonzero;fill:rgb(18.03894%,17.64679%,38.430786%);fill-opacity:1;" />
    <path
       id="path66"
       d="M 515.566406 135.449219 C 513.960938 140.835938 509.457031 144.09375 504.027344 144.09375 C 496.671875 144.09375 491.324219 138.0625 491.324219 129.820312 C 491.324219 121.578125 496.632812 115.546875 503.988281 115.546875 C 509.375 115.546875 513.960938 118.800781 515.566406 124.191406 L 509.496094 124.191406 C 508.453125 121.9375 506.5625 120.851562 504.070312 120.851562 C 499.484375 120.851562 496.871094 124.59375 496.871094 129.820312 C 496.871094 135.046875 499.527344 138.785156 504.148438 138.785156 C 506.640625 138.785156 508.453125 137.699219 509.496094 135.449219 Z M 515.566406 135.449219 "
       style=" stroke:none;fill-rule:nonzero;fill:rgb(18.03894%,17.64679%,38.430786%);fill-opacity:1;" />
    <path
       id="path68"
       d="M 533.058594 133.839844 C 533.058594 130.703125 531.210938 128.25 528.15625 128.25 C 525.097656 128.25 523.046875 130.703125 523.046875 133.839844 C 523.046875 136.976562 525.097656 139.429688 528.15625 139.429688 C 531.210938 139.429688 533.058594 136.976562 533.058594 133.839844 M 517.78125 133.878906 C 517.78125 127.445312 522.765625 123.585938 528.15625 123.585938 C 533.582031 123.585938 538.328125 127.488281 538.328125 133.800781 C 538.328125 140.191406 533.421875 144.09375 527.992188 144.09375 C 522.527344 144.09375 517.78125 140.191406 517.78125 133.878906 "
       style=" stroke:none;fill-rule:nonzero;fill:rgb(18.03894%,17.64679%,38.430786%);fill-opacity:1;" />
    <path
       id="path70"
       d="M 561.007812 123.789062 L 561.007812 143.890625 L 556.988281 143.890625 L 556.265625 141.640625 L 555.742188 141.640625 C 554.9375 142.644531 553.167969 144.09375 549.871094 144.09375 C 544.523438 144.09375 541.789062 140.3125 541.789062 134.683594 L 541.789062 123.789062 L 547.257812 123.789062 L 547.257812 133.476562 C 547.257812 135.972656 547.457031 139.429688 550.917969 139.429688 C 552.6875 139.429688 555.582031 138.503906 555.582031 133.234375 L 555.582031 123.789062 Z M 561.007812 123.789062 "
       style=" stroke:none;fill-rule:nonzero;fill:rgb(18.03894%,17.64679%,38.430786%);fill-opacity:1;" />
    <path
       id="path72"
       d="M 585.054688 132.996094 L 585.054688 143.890625 L 579.707031 143.890625 L 579.707031 134.203125 C 579.707031 133.519531 580.191406 128.453125 576.328125 128.25 C 574.441406 128.132812 571.0625 129.175781 571.0625 134.441406 L 571.0625 143.890625 L 565.753906 143.890625 L 565.753906 123.789062 L 569.855469 123.789062 L 570.539062 126.242188 L 571.222656 126.242188 C 572.066406 125.234375 573.957031 123.585938 577.335938 123.585938 C 582.523438 123.585938 585.054688 127.449219 585.054688 132.996094 "
       style=" stroke:none;fill-rule:nonzero;fill:rgb(18.03894%,17.64679%,38.430786%);fill-opacity:1;" />
    <path
       id="path74"
       d="M 598.6875 144.09375 C 593.097656 144.09375 588.515625 139.789062 588.515625 133.878906 C 588.515625 127.890625 593.257812 123.585938 598.886719 123.585938 C 603.472656 123.585938 607.371094 126.441406 608.5 131.148438 L 603.03125 131.148438 C 602.183594 129.496094 600.699219 128.453125 598.765625 128.453125 C 595.953125 128.453125 593.703125 130.703125 593.703125 133.839844 C 593.703125 136.976562 595.953125 139.226562 598.765625 139.226562 C 600.578125 139.226562 601.984375 138.304688 602.867188 136.816406 L 608.375 136.816406 C 607.089844 141.601562 602.949219 144.09375 598.6875 144.09375 "
       style=" stroke:none;fill-rule:nonzero;fill:rgb(18.03894%,17.64679%,38.430786%);fill-opacity:1;" />
    <path
       id="path76"
       d="M 617.628906 143.890625 L 612.480469 143.890625 L 612.480469 123.789062 L 617.628906 123.789062 Z M 611.597656 118.160156 C 611.597656 116.230469 613.164062 114.742188 615.054688 114.742188 C 616.902344 114.742188 618.429688 116.230469 618.429688 118.160156 C 618.429688 119.96875 616.902344 121.535156 615.054688 121.535156 C 613.164062 121.535156 611.597656 119.96875 611.597656 118.160156 "
       style=" stroke:none;fill-rule:nonzero;fill:rgb(18.03894%,17.64679%,38.430786%);fill-opacity:1;" />
    <g
       id="g80"
       clip-rule="nonzero"
       clip-path="url(#clip1)">
      <path
         id="path78"
         d="M 627.277344 143.890625 L 622.050781 143.890625 L 622.050781 115.34375 L 627.277344 115.34375 Z M 627.277344 143.890625 "
         style=" stroke:none;fill-rule:nonzero;fill:rgb(18.03894%,17.64679%,38.430786%);fill-opacity:1;" />
    </g>
    <g
       id="g84"
       clip-rule="nonzero"
       clip-path="url(#clip2)">
      <path
         id="path82"
         d="M 141.730469 159.492188 L 0 159.492188 L 0 17.761719 L 141.730469 17.761719 Z M 141.730469 159.492188 "
         style=" stroke:none;fill-rule:nonzero;fill:rgb(18.03894%,17.64679%,38.430786%);fill-opacity:1;" />
    </g>
    <path
       id="path86"
       d="M 109.609375 88.625 L 87.390625 88.625 L 87.390625 64.902344 Z M 90.238281 132.730469 L 70.867188 132.730469 L 70.867188 140.476562 L 57.230469 122.605469 C 67.613281 120.695312 72.972656 115.328125 72.972656 105.980469 C 72.972656 103.671875 72.644531 101.613281 71.996094 99.789062 L 90.238281 99.789062 Z M 32.125 99.789062 L 47.246094 99.789062 C 53.460938 99.789062 55.980469 102.199219 55.980469 105.980469 C 55.980469 109.761719 53.460938 112.25 47.246094 112.25 L 32.125 112.25 Z M 70.867188 71.71875 L 70.867188 97.359375 C 67.347656 91.417969 59.253906 88.65625 47.246094 88.628906 C 57.960938 87.539062 67.871094 81.757812 70.867188 71.71875 M 126.132812 33.359375 L 109.609375 33.359375 L 87.390625 57.015625 L 87.390625 33.359375 L 55.289062 33.359375 L 55.289062 64.765625 C 55.289062 71.488281 50.308594 75.390625 43.707031 75.390625 C 37.101562 75.390625 32.125 71.488281 32.125 64.765625 L 32.125 33.359375 L 15.597656 33.359375 L 15.597656 65.003906 C 15.597656 79.175781 27.039062 87.308594 39.949219 88.625 L 15.597656 88.625 L 15.597656 143.894531 L 32.125 143.894531 L 32.125 123.410156 L 39.34375 123.410156 L 54.613281 143.894531 L 126.132812 143.894531 L 126.132812 132.730469 L 106.761719 132.730469 L 106.761719 99.789062 L 126.132812 99.789062 L 126.132812 85.207031 L 102.445312 60.953125 L 126.132812 36.777344 Z M 126.132812 33.359375 "
       style=" stroke:none;fill-rule:nonzero;fill:rgb(100%,100%,100%);fill-opacity:1;" />
    <g
       id="g90"
       clip-rule="nonzero"
       clip-path="url(#clip3)">
      <path
         id="path88"
         d="M 227.921875 33.65625 L 243.492188 17.761719 L 260.894531 0 L 141.734375 0 L 141.734375 159.492188 L 243.695312 159.492188 L 174.277344 88.410156 L 227.914062 33.664062 "
         style=" stroke:none;fill-rule:nonzero;fill:rgb(100%,35.293579%,35.68573%);fill-opacity:1;" />
    </g>
    <g
       id="g94"
       clip-rule="nonzero"
       clip-path="url(#clip4)">
      <path
         id="path92"
         d="M 243.492188 17.761719 L 227.921875 33.65625 L 227.914062 33.664062 L 174.277344 88.410156 L 243.695312 159.492188 L 283.460938 159.492188 L 283.460938 17.761719 Z M 243.492188 17.761719 "
         style=" stroke:none;fill-rule:nonzero;fill:rgb(79.608154%,20.783997%,39.215088%);fill-opacity:1;" />
    </g>
  </g>
</svg>
