<?xml version="1.0" encoding="UTF-8" standalone="no"?>
<svg
   xmlns:dc="http://purl.org/dc/elements/1.1/"
   xmlns:cc="http://creativecommons.org/ns#"
   xmlns:rdf="http://www.w3.org/1999/02/22-rdf-syntax-ns#"
   xmlns:svg="http://www.w3.org/2000/svg"
   xmlns="http://www.w3.org/2000/svg"
   xmlns:sodipodi="http://sodipodi.sourceforge.net/DTD/sodipodi-0.dtd"
   xmlns:inkscape="http://www.inkscape.org/namespaces/inkscape"
   id="svg44"
   version="1.2"
   viewBox="0 0 43.273439 12.375"
   height="12.375pt"
   width="43.273438pt"
   sodipodi:docname="UCL.svg"
   inkscape:version="0.92.3 (2405546, 2018-03-11)">
  <sodipodi:namedview
     pagecolor="#ffffff"
     bordercolor="#666666"
     borderopacity="1"
     objecttolerance="10"
     gridtolerance="10"
     guidetolerance="10"
     inkscape:pageopacity="0"
     inkscape:pageshadow="2"
     inkscape:window-width="1680"
     inkscape:window-height="989"
     id="namedview27"
     showgrid="false"
     fit-margin-top="0"
     fit-margin-left="0"
     fit-margin-right="0"
     fit-margin-bottom="0"
     inkscape:zoom="7.8857248"
     inkscape:cx="29.103222"
     inkscape:cy="8.25"
     inkscape:window-x="0"
     inkscape:window-y="0"
     inkscape:window-maximized="1"
     inkscape:current-layer="svg44" />
  <metadata
     id="metadata48">
    <rdf:RDF>
      <cc:Work
         rdf:about="">
        <dc:format>image/svg+xml</dc:format>
        <dc:type
           rdf:resource="http://purl.org/dc/dcmitype/StillImage" />
        <dc:title></dc:title>
      </cc:Work>
    </rdf:RDF>
  </metadata>
  <defs
     id="defs11">
    <clipPath
       id="clip1">
      <path
         id="path2"
         d="M 6,0 H 19 V 12.375 H 6 Z m 0,0"
         inkscape:connector-curvature="0" />
    </clipPath>
    <clipPath
       id="clip2">
      <path
         id="path5"
         d="M 19,0 H 33 V 12.375 H 19 Z m 0,0"
         inkscape:connector-curvature="0" />
    </clipPath>
    <clipPath
       id="clip3">
      <path
         id="path8"
         d="m 34,0 h 9.273438 V 12.375 H 34 Z m 0,0"
         inkscape:connector-curvature="0" />
    </clipPath>
  </defs>
  <g
     id="surface722">
    <g
       id="g15"
       clip-path="url(#clip1)"
       style="clip-rule:nonzero">
      <path
         id="path13"
         d="M 18.144531,7.226562 V 0.46875 h -4.0625 v 7.929688 c 0,0.535156 -0.01953,1.09375 -0.488281,1.542968 -0.234375,0.214844 -0.648438,0.449219 -1.28125,0.449219 -0.46875,0 -0.957031,-0.125 -1.28125,-0.46875 C 10.578125,9.492188 10.5625,8.933594 10.5625,8.398438 V 0.46875 H 6.515625 V 8.015625 C 6.550781,9.347656 6.570312,10.769531 7.832031,11.992188 7.976562,12.125 8.132812,12.253906 8.304688,12.375 h 7.867187 c 0.171875,-0.121094 0.328125,-0.25 0.472656,-0.382812 1.5,-1.421876 1.5,-3.3125 1.5,-4.765626"
         style="fill:#211e1e;fill-opacity:1;fill-rule:nonzero;stroke:none"
         inkscape:connector-curvature="0" />
    </g>
    <g
       id="g19"
       clip-path="url(#clip2)"
       style="clip-rule:nonzero">
      <path
         id="path17"
         d="M 32.410156,9.886719 28.980469,8.234375 c -0.144531,0.429687 -0.703125,2.085937 -2.582031,2.085937 -1.984376,0 -2.691407,-1.78125 -2.691407,-3.667968 0,-0.503906 0,-1.941406 0.957031,-2.859375 0.269532,-0.269531 0.832032,-0.683594 1.714844,-0.683594 1.699219,0 2.3125,1.347656 2.636719,2.101563 l 3.375,-1.671876 c -0.269531,-0.5 -0.523437,-0.929687 -1.0625,-1.488281 C 29.988281,0.683594 28.148438,0 26.21875,0 c -4.316406,0 -6.609375,3.46875 -6.609375,6.882812 0,2.074219 0.835937,4.210938 2.621094,5.492188 H 30.3125 c 0.304688,-0.203125 0.589844,-0.429688 0.851562,-0.691406 0.613282,-0.609375 0.921876,-1.1875 1.246094,-1.796875"
         style="fill:#211e1e;fill-opacity:1;fill-rule:nonzero;stroke:none"
         inkscape:connector-curvature="0" />
    </g>
    <g
       id="g23"
       clip-path="url(#clip3)"
       style="clip-rule:nonzero">
      <path
         id="path21"
         d="m 38.050781,9.824219 v -9.375 H 34.023438 V 12.375 h 9.25 V 9.824219 Z m 0,0"
         style="fill:#211e1e;fill-opacity:1;fill-rule:nonzero;stroke:none"
         inkscape:connector-curvature="0" />
    </g>
    <path
       id="path25"
       d="M 4.46875,3.191406 C 4.460938,3.1875 2.289062,2.71875 2.289062,2.71875 c 0,0 -2.175781,0.46875 -2.179687,0.472656 -0.0117188,0 -0.007813,0.011719 -0.007813,0.011719 L 0.132812,3.3125 h 0.007813 c 0,0 0.03125,-0.00391 0.050781,0.027344 l 0.035156,0.179687 c 0,0 0,0.011719 0.011719,0.011719 h 4.101563 c 0.011718,0 0.011718,-0.00781 0.011718,-0.00781 L 4.386719,3.34375 C 4.402344,3.308594 4.441406,3.3125 4.441406,3.3125 h 0.00391 l 0.03125,-0.109375 c 0,0 0.00391,-0.011719 -0.00781,-0.011719"
       style="fill:#211e1e;fill-opacity:1;fill-rule:nonzero;stroke:none"
       inkscape:connector-curvature="0" />
    <path
       id="path27"
       d="m 4.238281,3.589844 c 0.00391,0 0.00781,-0.00391 0.00781,-0.00781 v -0.05469 c 0,0 -0.00391,0 -0.00781,0 H 3.910156 c -0.00391,0 -0.00781,0 -0.00781,0 v 0.054687 c 0,0.00391 0.00391,0.00781 0.00781,0.00781 h 0.011719 c 0.00781,0 0.00781,0.00781 0.00781,0.011718 0,0.00781 0.00391,0.050782 0.035156,0.078126 0.00391,0.00391 0.00391,0.015624 -0.00781,0.015624 H 3.945312 c -0.00781,0 -0.00781,0.00391 -0.00391,0.00781 0.00391,0.00391 0.00391,0.019531 0.00391,0.027344 V 3.7539 c 0,0.00391 0,0.00781 0.00391,0.00781 h 0.00781 c 0,0 0,0 0,0.00391 v 1.222656 c 0,0.00391 -0.015625,0.015625 -0.015625,0.015625 C 3.9375,5.007812 3.9375,5.007812 3.9375,5.007812 V 5.03125 c 0,0 0,0.00391 0,0.00391 -0.00391,0 -0.00391,0 -0.00781,0 H 3.917969 c -0.00391,0 -0.00391,0.00391 -0.00391,0.00391 V 5.074219 H 4.234375 V 5.039062 c 0,0 0,-0.00391 -0.00391,-0.00391 H 4.214844 c 0,0 0,0 -0.00391,0 0,0 0,-0.00391 0,-0.00391 v -0.02343 c 0,0 0,0 -0.00391,-0.00391 0,0 -0.011719,-0.011718 -0.019531,-0.015625 V 3.765625 c 0,-0.00391 0.00781,-0.00391 0.00781,-0.00391 h 0.00391 c 0.00391,0 0.00391,-0.00391 0.00391,-0.00781 V 3.730469 c 0,-0.00781 0.00391,-0.023438 0.00391,-0.027344 0.00391,-0.00391 0.00391,-0.00781 -0.00391,-0.00781 H 4.191406 c -0.011718,0 -0.011718,-0.011718 -0.00781,-0.015624 C 4.214844,3.65625 4.21875,3.609375 4.21875,3.605469 c 0,-0.00781 0,-0.015625 0.00781,-0.015625 z m 0,0"
       style="fill:#211e1e;fill-opacity:1;fill-rule:nonzero;stroke:none"
       inkscape:connector-curvature="0" />
    <path
       id="path29"
       d="m 3.527344,3.589844 c 0.00391,0 0.00391,-0.00391 0.00391,-0.00781 v -0.05469 c 0,0 0,0 -0.00391,0 H 3.195312 c -0.00391,0 -0.00391,0 -0.00391,0 v 0.054687 c 0,0.00391 0,0.00781 0.00391,0.00781 h 0.015626 c 0.00391,0 0.00391,0.00781 0.00391,0.011718 0,0.00781 0.00391,0.050782 0.035156,0.078126 0.00391,0.00391 0.00391,0.015624 -0.00781,0.015624 h -0.00781 c -0.011719,0 -0.011719,0.00391 -0.00781,0.00781 0.00391,0.00391 0.00391,0.019531 0.00391,0.027344 V 3.7539 c 0,0.00391 0,0.00781 0.00781,0.00781 h 0.00391 c 0,0 0.00391,0 0.00391,0.00391 v 1.222656 c -0.00391,0.00391 -0.019532,0.015625 -0.019532,0.015625 -0.00391,0.00391 -0.00391,0.00391 -0.00391,0.00391 V 5.03125 c 0,0 0,0.00391 0,0.00391 0,0 -0.00391,0 -0.00391,0 H 3.203125 c 0,0 -0.00391,0.00391 -0.00391,0.00391 V 5.074219 H 3.523438 V 5.039062 c 0,0 -0.00391,-0.00391 -0.00781,-0.00391 H 3.503906 c -0.00391,0 -0.00391,0 -0.00781,0 0,0 0,-0.00391 0,-0.00391 v -0.02343 c 0,0 0,0 0,-0.00391 -0.00391,0 -0.015625,-0.011718 -0.019532,-0.015625 V 3.765625 c 0,-0.00391 0.00391,-0.00391 0.00391,-0.00391 h 0.00391 c 0.00391,0 0.00391,-0.00391 0.00391,-0.00781 V 3.730469 c 0,-0.00781 0.00391,-0.023438 0.00391,-0.027344 0.00391,-0.00391 0.00391,-0.00781 -0.00391,-0.00781 H 3.476562 C 3.46875,3.695312 3.464844,3.683594 3.46875,3.679688 3.5,3.65625 3.503906,3.609375 3.503906,3.605469 c 0,-0.00781 0,-0.015625 0.00781,-0.015625 z m 0,0"
       style="fill:#211e1e;fill-opacity:1;fill-rule:nonzero;stroke:none"
       inkscape:connector-curvature="0" />
    <path
       id="path31"
       d="m 2.8125,3.589844 c 0.00391,0 0.00391,-0.00391 0.00391,-0.00781 v -0.05469 c 0,0 0,0 -0.00391,0 H 2.480469 c -0.00391,0 -0.00391,0 -0.00391,0 v 0.054687 c 0,0.00391 0,0.00781 0.00391,0.00781 H 2.496094 C 2.5,3.589844 2.5,3.597656 2.5,3.601562 c 0,0.00781 0.00391,0.050782 0.035156,0.078126 0.00391,0.00391 0.00391,0.015624 -0.00781,0.015624 h -0.00781 c -0.00781,0 -0.00781,0.00391 -0.00781,0.00781 0.00391,0.00391 0.00391,0.019531 0.00391,0.027344 v 0.023437 c 0,0.00391 0,0.00781 0.00781,0.00781 h 0.00391 c 0,0 0.00391,0 0.00391,0.00391 v 1.222656 c -0.00391,0.00391 -0.019531,0.015625 -0.019531,0.015625 0,0.00391 0,0.00391 0,0.00391 V 5.03125 c 0,0 -0.00391,0.00391 -0.00391,0.00391 0,0 -0.00391,0 -0.00391,0 H 2.488281 c 0,0 -0.00391,0.00391 -0.00391,0.00391 V 5.074219 H 2.808594 V 5.039062 c 0,0 -0.00391,-0.00391 -0.00391,-0.00391 H 2.789062 c -0.00391,0 -0.00391,0 -0.00391,0 0,0 -0.00391,-0.00391 -0.00391,-0.00391 v -0.02343 c 0,0 0,0 0,-0.00391 L 2.761719,4.988281 v -1.21875 c 0,0 0,0 0,-0.00391 0,-0.00391 0.00391,-0.00391 0.00391,-0.00391 h 0.00391 c 0.00391,0 0.00391,-0.00391 0.00391,-0.00781 V 3.730469 c 0,-0.00781 0.00391,-0.023438 0.00391,-0.027344 0.00391,-0.00391 0.00391,-0.00781 -0.00391,-0.00781 h -0.01173 c -0.00781,0 -0.00781,-0.011718 -0.00391,-0.015624 0.03125,-0.023438 0.03125,-0.070313 0.03125,-0.074219 0,-0.00781 0,-0.015625 0.00781,-0.015625 z m 0,0"
       style="fill:#211e1e;fill-opacity:1;fill-rule:nonzero;stroke:none"
       inkscape:connector-curvature="0" />
    <path
       id="path33"
       d="m 2.097656,3.589844 c 0.00391,0 0.00391,-0.00391 0.00391,-0.00781 v -0.05469 c 0,0 0,0 -0.00391,0 H 1.765625 c 0,0 -0.00391,0 -0.00391,0 v 0.054687 c 0,0.00391 0.00391,0.00781 0.00391,0.00781 H 1.78125 c 0.00781,0 0.00781,0.00781 0.00781,0.011718 0,0.00781 0.00391,0.050782 0.03125,0.078126 0.00781,0.00391 0.00391,0.015624 -0.00391,0.015624 H 1.804688 c -0.00781,0 -0.00781,0.00391 -0.00781,0.00781 0.00391,0.00391 0.00391,0.019531 0.00391,0.027344 V 3.7539 c 0,0.00391 0,0.00781 0.00781,0.00781 h 0.0039 c 0,0 0.00391,0 0.00391,0.00391 V 4.988281 C 1.8125,4.992188 1.796875,5.003906 1.796875,5.003906 c 0,0.00391 0,0.00391 0,0.00391 V 5.03125 c 0,0 0,0.00391 -0.00391,0.00391 0,0 0,0 -0.00391,0 H 1.773438 c 0,0 -0.00391,0.00391 -0.00391,0.00391 V 5.074219 H 2.09375 V 5.039062 c 0,0 -0.00391,-0.00391 -0.00391,-0.00391 H 2.074219 c 0,0 -0.00391,0 -0.00391,0 -0.00391,0 -0.00391,-0.00391 -0.00391,-0.00391 v -0.02343 c 0,0 0,0 0,-0.00391 -0.00391,0 -0.011718,-0.011718 -0.019531,-0.015625 V 3.765625 c 0,-0.00391 0.00391,-0.00391 0.00391,-0.00391 h 0.00391 c 0.00781,0 0.00781,-0.00391 0.00781,-0.00781 V 3.730469 c 0,-0.00781 0,-0.023438 0.00391,-0.027344 0,-0.00391 0,-0.00781 -0.00781,-0.00781 h -0.00781 c -0.011719,0 -0.011719,-0.011718 -0.00781,-0.015624 0.03125,-0.023438 0.035156,-0.070313 0.035156,-0.074219 0,-0.00781 0,-0.015625 0.00391,-0.015625 z m 0,0"
       style="fill:#211e1e;fill-opacity:1;fill-rule:nonzero;stroke:none"
       inkscape:connector-curvature="0" />
    <path
       id="path35"
       d="m 1.382812,3.589844 c 0.00391,0 0.00781,-0.00391 0.00781,-0.00781 v -0.05469 c 0,0 -0.00391,0 -0.00781,0 H 1.054688 c -0.00391,0 -0.00781,0 -0.00781,0 v 0.054687 c 0,0.00391 0.00391,0.00781 0.00781,0.00781 h 0.011718 c 0.00781,0 0.00781,0.00781 0.00781,0.011718 0,0.00781 0.00391,0.050782 0.035156,0.078126 0.00391,0.00391 0,0.015624 -0.00781,0.015624 H 1.089844 c -0.00781,0 -0.00781,0.00391 -0.00391,0.00781 0,0.00391 0.00391,0.019531 0.00391,0.027344 V 3.7539 c 0,0.00391 0,0.00781 0.00391,0.00781 h 0.00391 c 0,0 0.00391,0 0.00391,0.00391 v 1.222656 c -0.00391,0.00391 -0.015624,0.015625 -0.019531,0.015625 0,0.00391 0,0.00391 0,0.00391 V 5.03125 c 0,0 0,0.00391 0,0.00391 -0.00391,0 -0.00391,0 -0.00781,0 H 1.0625 c -0.00391,0 -0.00781,0.00391 -0.00781,0.00391 V 5.074219 H 1.378906 V 5.039062 c 0,0 0,-0.00391 -0.00391,-0.00391 H 1.359375 c 0,0 -0.00391,0 -0.00391,0 0,0 0,-0.00391 0,-0.00391 v -0.02343 c 0,0 0,0 -0.00391,-0.00391 0,0 -0.011718,-0.011718 -0.019531,-0.015625 V 3.765625 c 0,-0.00391 0.00391,-0.00391 0.00391,-0.00391 h 0.00781 c 0.00391,0 0.00391,-0.00391 0.00391,-0.00781 V 3.730469 c 0,-0.00781 0,-0.023438 0.00391,-0.027344 0,-0.00391 0,-0.00781 -0.00781,-0.00781 h -0.00781 c -0.011719,0 -0.011719,-0.011718 -0.00781,-0.015624 0.03125,-0.023438 0.035156,-0.070313 0.035156,-0.074219 0,-0.00781 0,-0.015625 0.00781,-0.015625 z m 0,0"
       style="fill:#211e1e;fill-opacity:1;fill-rule:nonzero;stroke:none"
       inkscape:connector-curvature="0" />
    <path
       id="path37"
       d="m 0.667969,3.589844 c 0.003906,0 0.007812,-0.00391 0.007812,-0.00781 v -0.05469 c 0,0 -0.003906,0 -0.007812,0 H 0.339844 c -0.003906,0 -0.007813,0 -0.007813,0 v 0.054687 c 0,0.00391 0.003907,0.00781 0.007813,0.00781 h 0.011718 c 0.007813,0 0.007813,0.00781 0.007813,0.011718 0,0.00781 0.003906,0.050782 0.035156,0.078126 0.003907,0.00391 0,0.015624 -0.007812,0.015624 H 0.375 c -0.003906,0 -0.007812,0.00391 -0.003906,0.00781 C 0.375,3.707031 0.375,3.722656 0.375,3.730469 v 0.023437 c 0,0.00391 0,0.00781 0.003906,0.00781 h 0.007813 c 0,0 0,0 0,0.00391 v 1.222656 c 0,0.00391 -0.015625,0.015625 -0.015625,0.015625 -0.003906,0.00391 -0.003906,0.00391 -0.003906,0.00391 V 5.03125 c 0,0 0,0.00391 0,0.00391 0,0 -0.003907,0 -0.003907,0 H 0.347656 C 0.34375,5.03516 0.34375,5.03907 0.34375,5.03907 V 5.074219 H 0.664062 V 5.039062 c 0,0 0,-0.00391 -0.003906,-0.00391 H 0.644531 c 0,0 0,0 -0.003906,0 0,0 0,-0.00391 0,-0.00391 v -0.02343 c 0,0 0,0 -0.003906,-0.00391 0,0 -0.011719,-0.011718 -0.015625,-0.015625 V 3.765625 c 0,-0.00391 0.003906,-0.00391 0.003906,-0.00391 h 0.003906 c 0.003906,0 0.003906,-0.00391 0.003906,-0.00781 V 3.730469 c 0,-0.00781 0,-0.023438 0.003907,-0.027344 0.003906,-0.00391 0.003906,-0.00781 -0.003907,-0.00781 H 0.621094 c -0.011719,0 -0.011719,-0.011718 -0.007813,-0.015624 0.03125,-0.023438 0.035157,-0.070313 0.035157,-0.074219 0,-0.00781 0,-0.015625 0.007812,-0.015625 z m 0,0"
       style="fill:#211e1e;fill-opacity:1;fill-rule:nonzero;stroke:none"
       inkscape:connector-curvature="0" />
    <path
       id="path39"
       d="m 3.300781,2.300781 h -0.03125 c -0.011719,0 -0.011719,-0.00781 -0.011719,-0.00781 V 2.253906 C 3.257812,2.246094 3.25,2.246094 3.25,2.246094 H 3.214844 c -0.00781,0 -0.00781,-0.00781 -0.00781,-0.00781 V 2.203125 c 0,0 0,-0.00781 -0.00781,-0.00781 H 3.179688 c -0.00781,0 -0.015626,-0.00391 -0.015626,-0.015624 0,-0.042969 0.015626,-0.371094 -0.15625,-0.609376 C 2.871094,1.367188 2.683594,1.265625 2.582031,1.21875 2.578125,1.171875 2.515625,1.15625 2.488281,1.148438 2.476562,1.140625 2.460938,1.136719 2.460938,1.125 V 1.109375 c 0,-0.015625 0.011718,-0.019531 0.03125,-0.019531 0.00781,0 0.011718,-0.00391 0.011718,-0.00781 V 1.042969 c 0,-0.00781 -0.00781,-0.015625 -0.011718,-0.015625 H 2.453125 c -0.00781,0 -0.011719,-0.00391 -0.011719,-0.011719 V 0.996094 c 0,-0.011719 -0.011718,-0.015625 -0.019531,-0.019532 V 0.730469 c 0,-0.007813 0.00781,-0.007813 0.011719,-0.007813 H 2.4375 c 0.00391,0 0.00781,0 0.00781,-0.003906 V 0.695312 C 2.445312,0.691406 2.441406,0.6875 2.4375,0.6875 H 2.425781 c -0.00391,0 -0.00391,-0.003906 -0.00391,-0.015625 0,-0.011719 0.00391,-0.019531 0.00781,-0.019531 H 2.4375 c 0.00391,0 0.00781,0 0.00781,-0.003906 V 0.625 C 2.44531,0.621094 2.4414,0.617188 2.4375,0.617188 H 2.425781 c -0.00391,0 -0.00781,-0.003907 -0.015625,-0.007813 C 2.371094,0.578125 2.328125,0.53125 2.328125,0.523438 V 0.515625 C 2.328125,0.511719 2.324219,0.5 2.3125,0.5 2.300781,0.5 2.300781,0.488281 2.308594,0.488281 c 0.00391,0 0.00391,0 0.00391,-0.007812 V 0.46875 c 0,-0.011719 -0.019531,-0.039062 -0.019531,-0.039062 h -0.00391 c 0,0 -0.019531,0.027343 -0.019531,0.039062 v 0.011719 c 0,0.007812 0,0.007812 0.00391,0.007812 C 2.28125,0.488281 2.28125,0.5 2.269531,0.5 2.257812,0.5 2.253906,0.511719 2.253906,0.515625 v 0.007813 c 0,0.007812 -0.042968,0.054687 -0.085937,0.085937 C 2.164062,0.613281 2.160156,0.617188 2.15625,0.617188 H 2.144531 c -0.00391,0 -0.00781,0.003906 -0.00781,0.007812 v 0.023438 c 0,0.003906 0.00391,0.003906 0.00781,0.003906 h 0.00781 c 0.00391,0 0.00781,0.007812 0.00781,0.019531 0,0.011719 -0.00391,0.015625 -0.00391,0.015625 h -0.01171 c -0.00391,0 -0.00781,0.003906 -0.00781,0.007812 V 0.71875 c 0,0.003906 0.00391,0.003906 0.00781,0.003906 0.00781,0 0.011719,0 0.011719,0.007813 V 0.976562 C 2.152344,0.980469 2.140625,0.984375 2.140625,0.996094 v 0.019531 c 0,0.00781 -0.00391,0.011719 -0.011719,0.011719 H 2.089844 c -0.00781,0 -0.011719,0.00781 -0.011719,0.015625 v 0.039062 c 0,0.00391 0.00391,0.00781 0.00781,0.00781 0.019531,0 0.035156,0.00391 0.035156,0.019531 0,0 -0.00391,0.011719 -0.00391,0.015625 0,0.011719 -0.011719,0.015625 -0.023438,0.023438 C 2.066406,1.15625 2,1.171875 2,1.21875 1.898438,1.265625 1.710938,1.367188 1.574219,1.570312 1.402344,1.808594 1.417969,2.136719 1.417969,2.179688 1.414062,2.191406 1.410156,2.195312 1.402344,2.195312 H 1.382812 c -0.011718,0 -0.011718,0.00781 -0.011718,0.00781 v 0.035156 c 0,0 0.00391,0.00781 -0.00781,0.00781 h -0.03125 c 0,0 -0.00781,0 -0.00781,0.00781 v 0.039063 c 0,0 0,0.00781 -0.011719,0.00781 H 1.28125 c 0,0 -0.011719,0 -0.011719,0.00781 v 0.039062 c 0,0.00781 0.00391,0.00781 0.00391,0.00781 0.011718,0 0.03125,0.00781 0.03125,0.03125 0,0.039062 0.023437,0.042969 0.035156,0.042969 v 0.140624 c 0,0.035157 -0.027344,0.046876 -0.042969,0.050782 0,0 -0.00781,0.00391 -0.00781,0.00781 v 0.148438 l 1,-0.222656 h 0.00391 L 3.289062,2.777344 V 2.628906 c 0,-0.00391 -0.00391,-0.00781 -0.00781,-0.00781 C 3.269531,2.617188 3.242188,2.605469 3.242188,2.570312 V 2.429688 c 0.00781,0 0.035156,-0.00391 0.035156,-0.042969 0,-0.023438 0.019531,-0.03125 0.027344,-0.03125 0.00391,0 0.00781,0 0.00781,-0.00781 V 2.308594 c 0,-0.00781 -0.011719,-0.00781 -0.011719,-0.00781"
       style="fill:#211e1e;fill-opacity:1;fill-rule:nonzero;stroke:none"
       inkscape:connector-curvature="0" />
    <path
       id="path41"
       d="m 0.34375,5.074219 v 0.125 H 0.171875 V 5.492188 H 0 V 5.785156 H 4.578125 V 5.492188 H 4.40625 V 5.199219 H 4.234375 v -0.125 z m 0,0"
       style="fill:#211e1e;fill-opacity:1;fill-rule:nonzero;stroke:none"
       inkscape:connector-curvature="0" />
  </g>
</svg>
