<?xml version="1.0" encoding="utf-8"?>
<!-- Generator: Adobe Illustrator 24.1.1, SVG Export Plug-In . SVG Version: 6.00 Build 0)  -->
<svg version="1.1" id="Layer_1" xmlns="http://www.w3.org/2000/svg" xmlns:xlink="http://www.w3.org/1999/xlink" x="0px" y="0px"
	 viewBox="0 0 100 50" style="enable-background:new 0 0 100 50;" xml:space="preserve">
<style type="text/css">
	.st0{fill:none;stroke:#000000;stroke-miterlimit:8;}
	.st1{fill-rule:evenodd;clip-rule:evenodd;}
	.st2{fill:none;stroke:#000000;stroke-width:0.96;stroke-miterlimit:8;}
</style>
<polygon class="st0" points="37.7,25 82.5,25 82.5,47.7 37.7,47.7 "/>
<g>
	<path d="M58.4,40.8v-8.4h2.7c0.8,0,1.5,0.2,1.9,0.5s0.7,0.8,0.7,1.4c0,0.5-0.1,0.9-0.4,1.2s-0.6,0.6-1.1,0.8l0,0
		c0.6,0.1,1,0.3,1.4,0.6s0.5,0.8,0.5,1.4c0,0.7-0.3,1.3-0.8,1.7s-1.3,0.7-2.1,0.7L58.4,40.8L58.4,40.8z M59.8,33.5v2.4h0.9
		c0.5,0,0.9-0.1,1.1-0.3s0.4-0.6,0.4-1c0-0.7-0.5-1.1-1.4-1.1C60.8,33.5,59.8,33.5,59.8,33.5z M59.8,37v2.7H61
		c0.5,0,0.9-0.1,1.2-0.4s0.4-0.6,0.4-1c0-0.9-0.6-1.3-1.8-1.3H59.8z"/>
</g>
<g>
	<line class="st0" x1="7.5" y1="25" x2="87.5" y2="25"/>
	<polygon class="st1" points="86.5,22 92.5,25 86.5,28 	"/>
</g>
<g>
	<path d="M25.2,17.9h-1.5l-0.8-2.1h-3.3l-0.7,2.1h-1.5l3.1-8.4h1.6L25.2,17.9z M22.6,14.6l-1.2-3.4c0-0.1-0.1-0.3-0.1-0.5l0,0
		c0,0.2-0.1,0.4-0.1,0.5L20,14.6C20,14.6,22.6,14.6,22.6,14.6z"/>
</g>
<path class="st2" d="M10,13.7c0-6.3,5.1-11.3,11.3-11.3s11.3,5.1,11.3,11.3S27.5,25,21.3,25S10,19.9,10,13.7L10,13.7z"/>
</svg>
