<?xml version="1.0" encoding="utf-8"?>
<!-- Generator: Adobe Illustrator 24.1.1, SVG Export Plug-In . SVG Version: 6.00 Build 0)  -->
<svg version="1.1" id="Layer_1" xmlns="http://www.w3.org/2000/svg" xmlns:xlink="http://www.w3.org/1999/xlink" x="0px" y="0px"
	 viewBox="0 0 100 50" style="enable-background:new 0 0 100 50;" xml:space="preserve">
<style type="text/css">
	.st0{fill:none;stroke:#000000;stroke-miterlimit:8;}
	.st1{fill-rule:evenodd;clip-rule:evenodd;}
	.st2{fill:none;stroke:#000000;stroke-width:0.96;stroke-miterlimit:8;}
</style>
<g>
	<path d="M45.4,18.1h-1.5L43.1,16h-3.3l-0.7,2.1h-1.5l3.1-8.4h1.6L45.4,18.1z M42.8,14.8l-1.2-3.4c0-0.1-0.1-0.3-0.1-0.5h0
		c0,0.2-0.1,0.4-0.1,0.5l-1.2,3.4H42.8z"/>
</g>
<g>
	<line class="st0" x1="7.5" y1="25" x2="87.5" y2="25"/>
	<polygon class="st1" points="86.5,22 92.5,25 86.5,28 86.5,22 	"/>
</g>
<polygon class="st0" points="18.9,2.3 63.8,2.3 63.8,25 18.9,25 18.9,2.3 "/>
<g>
	<path d="M33.8,40.5v-8.4h2.7c0.8,0,1.5,0.2,1.9,0.5s0.7,0.8,0.7,1.4c0,0.5-0.1,0.9-0.4,1.2s-0.6,0.6-1.1,0.8l0,0
		c0.6,0.1,1,0.3,1.4,0.6s0.5,0.8,0.5,1.4c0,0.7-0.3,1.3-0.8,1.7s-1.3,0.7-2.1,0.7L33.8,40.5L33.8,40.5z M35.2,33.2v2.4h0.9
		c0.5,0,0.9-0.1,1.1-0.3s0.4-0.6,0.4-1c0-0.7-0.5-1.1-1.4-1.1C36.2,33.2,35.2,33.2,35.2,33.2z M35.2,36.7v2.7h1.2
		c0.5,0,0.9-0.1,1.2-0.4s0.4-0.6,0.4-1c0-0.9-0.6-1.3-1.8-1.3H35.2z"/>
</g>
<path class="st2" d="M25,36.3C25,30,30.1,25,36.3,25s11.3,5.1,11.3,11.3s-5.1,11.3-11.3,11.3S25,42.5,25,36.3L25,36.3z"/>
</svg>
