<?xml version="1.0" encoding="utf-8"?>
<!-- Generator: Adobe Illustrator 24.1.1, SVG Export Plug-In . SVG Version: 6.00 Build 0)  -->
<svg version="1.1" id="Layer_1" xmlns="http://www.w3.org/2000/svg" xmlns:xlink="http://www.w3.org/1999/xlink" x="0px" y="0px"
	 viewBox="0 0 100 50" style="enable-background:new 0 0 100 50;" xml:space="preserve">
<style type="text/css">
	.st0{fill:none;stroke:#000000;stroke-miterlimit:8;}
	.st1{fill-rule:evenodd;clip-rule:evenodd;}
</style>
<g>
	<path d="M47.6,18.1H46L45.3,16H42l-0.7,2.1h-1.5l3.1-8.4h1.6L47.6,18.1z M44.9,14.8l-1.2-3.4c0-0.1-0.1-0.3-0.1-0.5h0
		c0,0.2-0.1,0.4-0.1,0.5l-1.2,3.4H44.9z"/>
</g>
<polygon class="st0" points="13.2,2.3 74.6,2.3 74.6,25 13.2,25 13.2,2.3 "/>
<polygon class="st0" points="20.4,25 65.3,25 65.3,47.7 20.4,47.7 20.4,25 "/>
<g>
	<path d="M40.4,40.8v-8.4h2.7c0.8,0,1.5,0.2,1.9,0.5s0.7,0.8,0.7,1.4c0,0.5-0.1,0.9-0.4,1.2s-0.6,0.6-1.1,0.8v0
		c0.6,0.1,1,0.3,1.4,0.6s0.5,0.8,0.5,1.4c0,0.7-0.3,1.3-0.8,1.7s-1.3,0.7-2.1,0.7H40.4z M41.8,33.5v2.4h0.9c0.5,0,0.9-0.1,1.1-0.3
		s0.4-0.6,0.4-1c0-0.7-0.5-1.1-1.4-1.1H41.8z M41.8,37v2.7H43c0.5,0,0.9-0.1,1.2-0.4s0.4-0.6,0.4-1c0-0.9-0.6-1.3-1.8-1.3H41.8z"/>
</g>
<g>
	<line class="st0" x1="7.5" y1="25" x2="87.5" y2="25"/>
	<polygon class="st1" points="86.5,22 92.5,25 86.5,28 86.5,22 	"/>
</g>
</svg>
