<?xml version="1.0" encoding="utf-8"?>
<!-- Generator: Adobe Illustrator 24.1.1, SVG Export Plug-In . SVG Version: 6.00 Build 0)  -->
<svg version="1.1" id="Layer_1" xmlns="http://www.w3.org/2000/svg" xmlns:xlink="http://www.w3.org/1999/xlink" x="0px" y="0px"
	 viewBox="0 0 100 50" style="enable-background:new 0 0 100 50;" xml:space="preserve">
<style type="text/css">
	.st0{fill:none;stroke:#000000;stroke-miterlimit:8;}
	.st1{fill-rule:evenodd;clip-rule:evenodd;}
	.st2{fill:none;stroke:#000000;stroke-width:0.96;stroke-miterlimit:8;}
</style>
<g>
	<path d="M37.4,18.1h-1.5L35.1,16h-3.3l-0.7,2.1h-1.5l3.1-8.4h1.6L37.4,18.1z M34.8,14.8l-1.2-3.4c0-0.1-0.1-0.3-0.1-0.5l0,0
		c0,0.2-0.1,0.4-0.1,0.5l-1.2,3.4C32.2,14.8,34.8,14.8,34.8,14.8z"/>
</g>
<g>
	<line class="st0" x1="7.5" y1="25" x2="87.5" y2="25"/>
	<polygon class="st1" points="86.5,22 92.5,25 86.5,28 	"/>
</g>
<polygon class="st0" points="10.9,2.3 55.8,2.3 55.8,25 10.9,25 "/>
<g>
	<path d="M67.6,40.5v-8.4h2.7c0.8,0,1.5,0.2,1.9,0.5s0.7,0.8,0.7,1.4c0,0.5-0.1,0.9-0.4,1.2s-0.6,0.6-1.1,0.8l0,0
		c0.6,0.1,1,0.3,1.4,0.6s0.5,0.8,0.5,1.4c0,0.7-0.3,1.3-0.8,1.7s-1.3,0.7-2.1,0.7L67.6,40.5L67.6,40.5z M69,33.2v2.4h0.9
		c0.5,0,0.9-0.1,1.1-0.3s0.4-0.6,0.4-1c0-0.7-0.5-1.1-1.4-1.1C70,33.2,69,33.2,69,33.2z M69,36.7v2.7h1.2c0.5,0,0.9-0.1,1.2-0.4
		c0.3-0.3,0.4-0.6,0.4-1c0-0.9-0.6-1.3-1.8-1.3H69z"/>
</g>
<path class="st2" d="M58.8,36.3C58.8,30,63.9,25,70.1,25s11.3,5.1,11.3,11.3s-5.1,11.3-11.3,11.3S58.8,42.5,58.8,36.3L58.8,36.3z"/>
</svg>
